<svg width="20" height="20" viewBox="0 0 20 20" fill="none" xmlns="http://www.w3.org/2000/svg">
<path fill-rule="evenodd" clip-rule="evenodd" d="M17.3176 2.68264C17.3758 2.7407 17.4219 2.80967 17.4534 2.8856C17.485 2.96153 17.5012 3.04293 17.5012 3.12514C17.5012 3.20735 17.485 3.28875 17.4534 3.36468C17.4219 3.44061 17.3758 3.50958 17.3176 3.56764L3.56756 17.3176C3.4502 17.435 3.29103 17.5009 3.12506 17.5009C2.95909 17.5009 2.79992 17.435 2.68256 17.3176C2.5652 17.2003 2.49927 17.0411 2.49927 16.8751C2.49927 16.7092 2.5652 16.55 2.68256 16.4326L16.4326 2.68264C16.4906 2.62444 16.5596 2.57826 16.6355 2.54675C16.7114 2.51524 16.7928 2.49902 16.8751 2.49902C16.9573 2.49902 17.0387 2.51524 17.1146 2.54675C17.1905 2.57826 17.2595 2.62444 17.3176 2.68264Z" fill="#777777"/>
<path fill-rule="evenodd" clip-rule="evenodd" d="M2.6824 2.68264C2.62419 2.7407 2.57801 2.80967 2.54651 2.8856C2.515 2.96153 2.49878 3.04293 2.49878 3.12514C2.49878 3.20735 2.515 3.28875 2.54651 3.36468C2.57801 3.44061 2.62419 3.50958 2.6824 3.56764L16.4324 17.3176C16.5498 17.435 16.7089 17.5009 16.8749 17.5009C17.0409 17.5009 17.2 17.435 17.3174 17.3176C17.4348 17.2003 17.5007 17.0411 17.5007 16.8751C17.5007 16.7092 17.4348 16.55 17.3174 16.4326L3.5674 2.68264C3.50934 2.62444 3.44037 2.57826 3.36444 2.54675C3.28851 2.51524 3.20711 2.49902 3.1249 2.49902C3.04269 2.49902 2.96129 2.51524 2.88535 2.54675C2.80942 2.57826 2.74045 2.62444 2.6824 2.68264Z" fill="#777777"/>
</svg>
