<svg width="35" height="35" viewBox="0 0 35 35" fill="none" xmlns="http://www.w3.org/2000/svg">
<g clip-path="url(#clip0_355_157)">
<path d="M26.8521 15.9351C25.325 15.9351 23.7986 15.9351 22.2715 15.9351C21.5444 15.9351 20.8568 15.7806 20.2541 15.3458C19.3304 14.6769 18.9277 13.7525 18.9257 12.6388C18.9204 9.55181 18.9257 6.46419 18.9224 3.37723C18.9184 1.37523 20.3311 0.0327491 22.2709 0.0200401C25.3242 -0.00537795 28.3788 -0.00537795 31.4347 0.0200401C32.7725 0.0320802 33.8535 0.573217 34.4836 1.82606C34.7289 2.32948 34.8526 2.88348 34.8448 3.44345C34.8541 6.4856 34.8669 9.53041 34.8448 12.5705C34.8321 13.9893 34.2113 15.0769 32.8776 15.6843C32.4093 15.897 31.907 15.9317 31.406 15.9344C29.8836 15.9404 28.3679 15.9351 26.8521 15.9351Z" fill="#777777"/>
<path d="M7.97926 34.998C6.4408 34.998 4.90234 34.998 3.36388 34.998C2.03679 34.994 1.02274 34.4368 0.383947 33.2589C0.107024 32.7492 0.00869565 32.1846 0.00668896 31.6134C-0.00222965 28.5811 -0.00222965 25.5487 0.00668896 22.5164C0.012709 20.8254 0.886287 19.6622 2.50568 19.1867C2.82073 19.0943 3.16656 19.0803 3.49833 19.0796C6.43032 19.0716 9.36165 19.0716 12.2923 19.0796C14.4468 19.085 15.9258 20.5739 15.9264 22.7218C15.9264 25.6649 15.9253 28.6081 15.9231 31.5512C15.9231 32.1532 15.8562 32.7458 15.5572 33.2977C15.0548 34.2248 14.2916 34.7693 13.2589 34.9432C12.9058 34.9938 12.5491 35.0144 12.1926 35.0047C10.788 34.996 9.38395 34.998 7.97926 34.998Z" fill="#777777"/>
<path d="M7.88585 0.0126953C12.3333 0.146475 15.7347 3.47892 15.7554 7.86822C15.7768 12.3124 12.32 15.7686 7.89521 15.7612C3.4912 15.7565 0.0490614 12.3498 0.0356835 7.9244C0.0223056 3.49898 3.45575 0.155839 7.88585 0.0126953Z" fill="#777777"/>
<path d="M24.325 22.6997C24.325 22.3766 24.3398 22.0522 24.325 21.7304C24.2468 20.287 25.7832 18.8943 27.3137 19.1264C28.4876 19.3044 29.4949 20.3599 29.5879 21.5445C29.6548 22.3472 29.62 23.1498 29.622 23.9525C29.622 24.2408 29.713 24.3458 30.008 24.3398C30.7538 24.3244 31.501 24.3278 32.2475 24.3398C33.3177 24.3552 34.0615 24.9204 34.5304 25.8281C35.0147 26.7646 34.8802 27.685 34.2628 28.5298C33.6608 29.3452 32.8214 29.6415 31.8441 29.6388C31.2421 29.6388 30.6401 29.6495 30.0381 29.6341C29.7378 29.6268 29.624 29.7291 29.624 30.0355C29.624 30.8254 29.6689 31.6174 29.5859 32.4067C29.4742 33.4609 28.8889 34.1806 27.9531 34.5973C27.0026 35.0214 26.0949 34.8555 25.2983 34.196C24.6381 33.6468 24.2869 32.9472 24.3217 32.0622C24.3478 31.384 24.315 30.703 24.3317 30.0234C24.3384 29.7331 24.2414 29.6335 23.9485 29.6328C23.1458 29.6328 22.3431 29.6656 21.5404 29.5993C20.4408 29.5084 19.5491 28.7639 19.1759 27.5866C18.9083 26.7398 19.2876 25.6027 20.0454 24.9706C20.5511 24.5472 21.1157 24.3117 21.7886 24.3311C22.5123 24.3518 23.2374 24.3264 23.9618 24.3391C24.2367 24.3445 24.3424 24.2522 24.3311 23.9733C24.3143 23.5505 24.3271 23.1264 24.3271 22.7024L24.325 22.6997Z" fill="#777777"/>
</g>
<defs>
<clipPath id="clip0_355_157">
<rect width="34.8528" height="35" fill="white"/>
</clipPath>
</defs>
</svg>
